<svg width="25" height="25" viewBox="0 0 25 25" fill="none" xmlns="http://www.w3.org/2000/svg">
<path d="M12.5 25C19.4036 25 25 19.4036 25 12.5C25 5.59644 19.4036 0 12.5 0C5.59644 0 0 5.59644 0 12.5C0 19.4036 5.59644 25 12.5 25Z" fill="#6F57FF"/>
<path d="M5.71994 12.2291L17.772 7.58226C18.3314 7.38018 18.8199 7.71872 18.6387 8.56456L18.6397 8.56351L16.5877 18.2312C16.4356 18.9166 16.0283 19.0833 15.4585 18.7604L12.3335 16.4573L10.8262 17.9093C10.6595 18.076 10.5189 18.2166 10.196 18.2166L10.4179 15.0364L16.2095 9.80414C16.4616 9.58226 16.1533 9.45726 15.821 9.6781L8.66369 14.1843L5.57828 13.2218C4.90848 13.0093 4.8939 12.5521 5.71994 12.2291V12.2291Z" fill="black"/>
</svg>
