<svg width="25" height="25" viewBox="0 0 25 25" fill="white" xmlns="http://www.w3.org/2000/svg">
<g clip-path="url(#clip0)">
<path d="M23.6253 1.3752C22.7088 0.458457 21.6046 0 20.3134 0H4.68833C3.39721 0 2.29297 0.458457 1.37606 1.3752C0.459312 2.29211 0.000854492 3.3963 0.000854492 4.68747V20.3124C0.000854492 21.6035 0.459312 22.7078 1.37606 23.6247C2.29297 24.5416 3.39721 25 4.68833 25H20.3133C21.6044 25 22.7086 24.5416 23.6251 23.6247C24.5421 22.7078 25.0005 21.6035 25.0005 20.3124V4.68747C25.0005 3.3963 24.542 2.29194 23.6253 1.3752ZM19.1252 9.61922C19.1361 9.71687 19.1416 9.8631 19.1416 10.0587C19.1416 10.9702 19.0085 11.8844 18.7428 12.8011C18.4771 13.7181 18.0701 14.597 17.5219 15.4379C16.9743 16.2787 16.3206 17.0222 15.5611 17.6678C14.8015 18.3131 13.8901 18.8287 12.8265 19.2136C11.7635 19.5991 10.6239 19.7919 9.40875 19.7919C7.52088 19.7919 5.77393 19.2815 4.16796 18.262C4.42837 18.2944 4.69978 18.3107 4.98175 18.3107C6.55516 18.3107 7.97118 17.8225 9.22991 16.8456C8.49217 16.8351 7.83288 16.6074 7.25243 16.1621C6.6718 15.7172 6.26773 15.1531 6.03981 14.4694C6.32183 14.5128 6.53339 14.5343 6.67442 14.5343C6.91311 14.5343 7.18989 14.4909 7.50446 14.4043C6.71239 14.2522 6.04517 13.8592 5.50263 13.2245C4.95997 12.5896 4.68872 11.8654 4.68872 11.0517V11.0191C5.26365 11.2902 5.80619 11.4312 6.31624 11.4422C5.32881 10.7802 4.83512 9.83089 4.83512 8.59393C4.83512 7.98623 4.99235 7.41119 5.30703 6.86865C6.16415 7.92124 7.20602 8.76205 8.43197 9.39136C9.65804 10.0206 10.9711 10.3734 12.3708 10.4493C12.3166 10.2432 12.2894 9.98264 12.2894 9.66807C12.2894 8.72391 12.6231 7.91839 13.2905 7.251C13.9576 6.58366 14.7634 6.24988 15.7073 6.24988C16.7058 6.24988 17.536 6.60806 18.1978 7.32425C18.9466 7.18322 19.6739 6.90639 20.3789 6.49422C20.1078 7.3295 19.6029 7.96434 18.8654 8.3984C19.5705 8.30057 20.2267 8.11621 20.8343 7.84496C20.3786 8.53938 19.8087 9.13072 19.1252 9.61922Z" fill="#6F57FF"/>
</g>
<defs>
<clipPath id="clip0">
<rect width="25" height="25" fill="white"/>
</clipPath>
</defs>
</svg>
